<svg width="722" height="458" viewBox="0 0 722 458" fill="none" xmlns="http://www.w3.org/2000/svg">
<g clip-path="url(#clip0_609_104)">
<g filter="url(#filter0_i_609_104)">
<rect width="722" height="458" rx="25" fill="url(#paint0_linear_609_104)"/>
</g>
<path d="M223.16 363V345.48H226.496V363H223.16ZM226.016 363V360.12H233.96V363H226.016ZM226.016 355.536V352.656H233.336V355.536H226.016ZM226.016 348.36V345.48H233.768V348.36H226.016ZM239.857 363V345.48H243.265V363H239.857ZM242.785 363V360H250.345V363H242.785ZM255.57 363V345.48H258.978V363H255.57ZM265.751 363V345.48H269.087V363H265.751ZM268.607 363V360.12H276.551V363H268.607ZM268.607 355.536V352.656H275.927V355.536H268.607ZM268.607 348.36V345.48H276.359V348.36H268.607ZM282.447 363V345.48H285.855V363H282.447ZM285.375 363V360H292.935V363H285.375ZM308.549 363.12V360.384H312.941C313.741 360.384 314.349 360.168 314.765 359.736C315.181 359.288 315.389 358.68 315.389 357.912C315.389 357.144 315.181 356.552 314.765 356.136C314.349 355.704 313.741 355.488 312.941 355.488H308.549V353.4H312.701C313.869 353.4 314.909 353.544 315.821 353.832C316.749 354.104 317.469 354.568 317.981 355.224C318.509 355.88 318.773 356.76 318.773 357.864V358.2C318.773 359.24 318.541 360.128 318.077 360.864C317.629 361.584 316.949 362.144 316.037 362.544C315.141 362.928 314.029 363.12 312.701 363.12H308.549ZM305.693 363.12V345.36H309.029V363.12H305.693ZM308.549 354.936V352.848H312.293C313.109 352.848 313.709 352.632 314.093 352.2C314.477 351.768 314.669 351.192 314.669 350.472C314.669 349.752 314.477 349.176 314.093 348.744C313.709 348.312 313.109 348.096 312.293 348.096H308.549V345.36H311.981C313.965 345.36 315.469 345.776 316.493 346.608C317.533 347.44 318.053 348.632 318.053 350.184V350.52C318.053 351.608 317.789 352.48 317.261 353.136C316.749 353.776 316.037 354.24 315.125 354.528C314.213 354.8 313.165 354.936 311.981 354.936H308.549ZM322.607 363L328.583 345.48H334.151L340.295 363H336.791L331.583 347.808L332.807 348.336H329.807L331.055 347.808L326.015 363H322.607ZM326.783 358.344L327.863 355.464H334.967L336.023 358.344H326.783ZM345.297 363V345.36H348.705V363H345.297ZM356.001 363L350.625 355.368H354.441L359.985 363H356.001ZM347.697 357.144V354.384H352.161C352.785 354.384 353.321 354.256 353.769 354C354.233 353.744 354.593 353.384 354.849 352.92C355.105 352.456 355.233 351.928 355.233 351.336C355.233 350.728 355.105 350.192 354.849 349.728C354.593 349.264 354.233 348.904 353.769 348.648C353.321 348.392 352.785 348.264 352.161 348.264H347.697V345.36H351.801C353.209 345.36 354.425 345.568 355.449 345.984C356.489 346.4 357.289 347.032 357.849 347.88C358.409 348.728 358.689 349.792 358.689 351.072V351.456C358.689 352.752 358.401 353.816 357.825 354.648C357.265 355.48 356.473 356.104 355.449 356.52C354.425 356.936 353.209 357.144 351.801 357.144H347.697ZM367.827 363.12V360.384H372.219C373.019 360.384 373.627 360.168 374.043 359.736C374.459 359.288 374.667 358.68 374.667 357.912C374.667 357.144 374.459 356.552 374.043 356.136C373.627 355.704 373.019 355.488 372.219 355.488H367.827V353.4H371.979C373.147 353.4 374.187 353.544 375.099 353.832C376.027 354.104 376.747 354.568 377.259 355.224C377.787 355.88 378.051 356.76 378.051 357.864V358.2C378.051 359.24 377.819 360.128 377.355 360.864C376.907 361.584 376.227 362.144 375.315 362.544C374.419 362.928 373.307 363.12 371.979 363.12H367.827ZM364.971 363.12V345.36H368.307V363.12H364.971ZM367.827 354.936V352.848H371.571C372.387 352.848 372.987 352.632 373.371 352.2C373.755 351.768 373.947 351.192 373.947 350.472C373.947 349.752 373.755 349.176 373.371 348.744C372.987 348.312 372.387 348.096 371.571 348.096H367.827V345.36H371.259C373.243 345.36 374.747 345.776 375.771 346.608C376.811 347.44 377.331 348.632 377.331 350.184V350.52C377.331 351.608 377.067 352.48 376.539 353.136C376.027 353.776 375.315 354.24 374.403 354.528C373.491 354.8 372.443 354.936 371.259 354.936H367.827ZM392.033 363.456C390.449 363.456 389.073 363.176 387.905 362.616C386.753 362.056 385.793 361.328 385.025 360.432C384.273 359.52 383.705 358.544 383.321 357.504C382.953 356.448 382.769 355.432 382.769 354.456V353.928C382.769 352.856 382.961 351.792 383.345 350.736C383.729 349.664 384.305 348.696 385.073 347.832C385.857 346.968 386.825 346.28 387.977 345.768C389.129 345.24 390.481 344.976 392.033 344.976C393.569 344.976 394.913 345.24 396.065 345.768C397.217 346.28 398.177 346.968 398.945 347.832C399.729 348.696 400.313 349.664 400.697 350.736C401.081 351.792 401.273 352.856 401.273 353.928V354.456C401.273 355.432 401.081 356.448 400.697 357.504C400.329 358.544 399.761 359.52 398.993 360.432C398.241 361.328 397.281 362.056 396.113 362.616C394.961 363.176 393.601 363.456 392.033 363.456ZM392.033 360.288C392.929 360.288 393.729 360.128 394.433 359.808C395.153 359.488 395.761 359.048 396.257 358.488C396.769 357.912 397.153 357.264 397.409 356.544C397.681 355.808 397.817 355.032 397.817 354.216C397.817 353.336 397.681 352.528 397.409 351.792C397.153 351.056 396.769 350.416 396.257 349.872C395.761 349.328 395.153 348.904 394.433 348.6C393.713 348.296 392.913 348.144 392.033 348.144C391.137 348.144 390.329 348.296 389.609 348.6C388.889 348.904 388.273 349.328 387.761 349.872C387.265 350.416 386.881 351.056 386.609 351.792C386.353 352.528 386.225 353.336 386.225 354.216C386.225 355.032 386.353 355.808 386.609 356.544C386.881 357.264 387.265 357.912 387.761 358.488C388.273 359.048 388.889 359.488 389.609 359.808C390.329 360.128 391.137 360.288 392.033 360.288ZM412.848 363.456C411.296 363.456 409.984 363.208 408.912 362.712C407.856 362.216 407.048 361.536 406.488 360.672C405.928 359.792 405.648 358.8 405.648 357.696H408.984C408.984 358.16 409.112 358.616 409.368 359.064C409.624 359.496 410.032 359.848 410.592 360.12C411.168 360.392 411.92 360.528 412.848 360.528C413.68 360.528 414.376 360.408 414.936 360.168C415.496 359.928 415.912 359.616 416.184 359.232C416.456 358.832 416.592 358.384 416.592 357.888C416.592 357.264 416.328 356.768 415.8 356.4C415.272 356.016 414.456 355.776 413.352 355.68L411.816 355.56C410.136 355.416 408.792 354.896 407.784 354C406.792 353.088 406.296 351.888 406.296 350.4C406.296 349.28 406.56 348.32 407.088 347.52C407.616 346.704 408.352 346.08 409.296 345.648C410.256 345.2 411.376 344.976 412.656 344.976C413.984 344.976 415.128 345.208 416.088 345.672C417.048 346.136 417.792 346.792 418.32 347.64C418.848 348.472 419.112 349.456 419.112 350.592H415.776C415.776 350.112 415.656 349.672 415.416 349.272C415.192 348.856 414.848 348.528 414.384 348.288C413.936 348.032 413.36 347.904 412.656 347.904C411.984 347.904 411.424 348.016 410.976 348.24C410.528 348.464 410.192 348.768 409.968 349.152C409.744 349.536 409.632 349.952 409.632 350.4C409.632 350.944 409.832 351.424 410.232 351.84C410.632 352.24 411.264 352.472 412.128 352.536L413.664 352.68C414.912 352.776 416.008 353.04 416.952 353.472C417.896 353.904 418.624 354.488 419.136 355.224C419.664 355.96 419.928 356.848 419.928 357.888C419.928 358.992 419.64 359.968 419.064 360.816C418.488 361.648 417.664 362.296 416.592 362.76C415.536 363.224 414.288 363.456 412.848 363.456ZM423.599 363L429.575 345.48H435.143L441.287 363H437.783L432.575 347.808L433.799 348.336H430.799L432.047 347.808L427.007 363H423.599ZM427.775 358.344L428.855 355.464H435.959L437.015 358.344H427.775Z" fill="#FEFBFF"/>
<path fill-rule="evenodd" clip-rule="evenodd" d="M94.6654 319.851C94.6654 319.852 94.6657 319.826 94.6766 319.771C94.6871 319.717 94.7054 319.646 94.7347 319.559C94.7935 319.385 94.8901 319.165 95.0334 318.917C95.32 318.421 95.7759 317.841 96.4342 317.301C97.733 316.235 99.8636 315.292 103.14 315.533C116.1 316.484 123.415 325.41 123.415 332.161V372.168C123.415 372.805 123.268 373.099 123.132 373.241C123.004 373.375 122.718 373.546 122.028 373.546H114.306C113.616 373.546 113.33 373.375 113.202 373.241C113.066 373.1 112.919 372.805 112.919 372.168V335.238C112.919 332.828 111.735 330.421 109.988 328.634C108.238 326.842 105.817 325.566 103.213 325.566H94.6654V319.851ZM103.213 327.566H94.6654V372.168C94.6654 373.162 94.4817 374.108 93.7928 374.763C93.1156 375.407 92.1813 375.546 91.2784 375.546H83.4154C82.6084 375.546 81.7233 375.389 81.0382 374.792C80.3257 374.171 80.0284 373.251 80.0284 372.168V334.819C80.0284 332.956 81.0921 330.668 82.6635 328.878C84.2482 327.074 86.5354 325.566 89.1714 325.566H92.6654V319.851C92.6654 319.284 92.9171 318.582 93.3016 317.917C93.7056 317.217 94.317 316.45 95.1659 315.754C96.8815 314.347 99.525 313.262 103.287 313.538C117.005 314.545 125.415 324.098 125.415 332.161V372.168C125.415 373.069 125.212 373.963 124.575 374.626C123.931 375.297 123.024 375.546 122.028 375.546H114.306C113.311 375.546 112.403 375.297 111.759 374.626C111.123 373.963 110.919 373.069 110.919 372.168V335.238C110.919 333.463 110.026 331.534 108.558 330.031C107.093 328.532 105.161 327.566 103.213 327.566ZM89.1714 327.566H92.6654V372.168C92.6654 372.991 92.498 373.235 92.4146 373.314C92.3196 373.404 92.0604 373.546 91.2784 373.546H83.4154C82.8182 373.546 82.5098 373.422 82.3524 373.285C82.2226 373.171 82.0284 372.902 82.0284 372.168V334.819C82.0284 333.604 82.7896 331.766 84.1664 330.198C85.5299 328.645 87.3142 327.566 89.1714 327.566ZM164.111 381.128C164.111 381.13 164.11 381.156 164.1 381.209C164.089 381.262 164.071 381.333 164.042 381.42C163.983 381.595 163.886 381.814 163.743 382.063C163.457 382.559 163.001 383.139 162.342 383.679C161.043 384.744 158.913 385.687 155.636 385.447C142.676 384.495 135.361 375.569 135.361 368.819V328.812C135.361 328.175 135.508 327.88 135.644 327.739C135.772 327.605 136.058 327.434 136.748 327.434H144.471C145.16 327.434 145.446 327.605 145.575 327.739C145.71 327.88 145.858 328.175 145.858 328.812V365.741C145.858 368.151 147.042 370.559 148.788 372.346C150.539 374.137 152.96 375.414 155.563 375.414H164.111V381.128V381.128ZM155.563 373.414H164.111V328.812C164.111 327.817 164.295 326.872 164.984 326.216C165.661 325.572 166.595 325.434 167.498 325.434H175.361C176.168 325.434 177.053 325.59 177.738 326.187C178.451 326.808 178.748 327.728 178.748 328.812V366.161C178.748 368.023 177.684 370.312 176.113 372.101C174.528 373.906 172.241 375.414 169.605 375.414H166.111V381.128C166.111 381.695 165.859 382.397 165.475 383.063C165.071 383.762 164.459 384.529 163.611 385.225C161.895 386.632 159.252 387.718 155.49 387.441C141.772 386.434 133.361 376.882 133.361 368.819V328.812C133.361 327.91 133.565 327.016 134.201 326.353C134.845 325.683 135.753 325.434 136.748 325.434H144.471C145.466 325.434 146.373 325.683 147.017 326.353C147.654 327.016 147.858 327.91 147.858 328.812V365.741C147.858 367.516 148.75 369.445 150.219 370.948C151.683 372.447 153.615 373.414 155.563 373.414ZM169.605 373.414H166.111V328.812C166.111 327.988 166.279 327.745 166.362 327.666C166.457 327.575 166.716 327.434 167.498 327.434H175.361C175.958 327.434 176.267 327.558 176.424 327.695C176.554 327.808 176.748 328.077 176.748 328.812V366.161C176.748 367.376 175.987 369.214 174.61 370.782C173.247 372.334 171.462 373.414 169.605 373.414Z" fill="#FEFBFF"/>
<circle cx="581.889" cy="86.4971" r="45.7505" fill="#E71924"/>
<circle cx="637.647" cy="86.4971" r="45.7505" fill="#F99F19"/>
<path fill-rule="evenodd" clip-rule="evenodd" d="M609.768 122.595C620.636 114.23 627.64 101.092 627.64 86.3172C627.64 71.5427 620.636 58.404 609.768 50.0396C598.9 58.404 591.897 71.5427 591.897 86.3172C591.897 101.092 598.9 114.23 609.768 122.595Z" fill="#F26520"/>
<rect x="80.4209" y="156.195" width="97.9347" height="69.3406" rx="6.07624" fill="url(#paint1_linear_609_104)" stroke="#211F21" stroke-width="2.14455"/>
<path d="M80.7783 178.713H110.087" stroke="#211F21" stroke-width="2" stroke-linecap="round"/>
<path d="M80.7783 200.873H109.445" stroke="#211F21" stroke-width="2" stroke-linecap="round"/>
<path d="M149.404 200.873H177.998" stroke="#211F21" stroke-width="2" stroke-linecap="round"/>
<path d="M148.975 179.428H177.998" stroke="#211F21" stroke-width="2" stroke-linecap="round"/>
<circle cx="129.388" cy="166.561" r="2.14455" fill="#211F21"/>
<path d="M231.053 205.824C236.325 192.59 236.926 185.119 231.053 171.645C230.43 170.215 231.053 169.024 231.768 168.786C232.483 168.547 233.589 168.786 234.27 170.215C241.188 184.73 240.767 192.87 234.627 207.387C233.912 208.817 232.575 208.998 231.768 208.46C230.824 207.831 230.608 206.941 231.053 205.824Z" fill="#FEFBFF"/>
<path d="M223.547 172.717C222.832 173.075 222.375 174.43 223.19 175.934C227.999 185.94 227.801 191.662 223.19 202.026C222.686 203.071 222.998 204.226 223.905 204.528C224.977 204.886 225.913 204.125 226.406 203.098C231.701 192.084 231.84 185.756 226.406 174.147C225.905 173.075 224.619 172.181 223.547 172.717Z" fill="#FEFBFF"/>
<path d="M216.399 177.364C215.326 177.721 215.136 178.908 215.684 180.223C218.53 187.063 218.979 190.898 215.684 197.737C215.041 198.929 214.83 200.193 216.041 200.596C217.252 201 218.126 200.363 218.543 199.524C222.766 191.149 221.82 186.454 218.543 178.079C218.263 177.364 217.471 177.006 216.399 177.364Z" fill="#FEFBFF"/>
<path d="M208.893 180.223C207.82 180.938 207.668 182.022 208.535 183.797C210.344 187.564 210.303 189.68 208.535 193.448C207.713 195.11 207.463 197.022 208.893 197.38C210.322 197.737 210.957 197.229 211.752 195.235C213.578 189.987 213.756 187.02 211.752 181.653C211.291 180.261 210.322 179.508 208.893 180.223Z" fill="#FEFBFF"/>
<path d="M145.115 170.849C142.372 161.508 137.251 156.91 129.03 156.91C119.023 156.91 116.194 164.53 110.087 178.355C113.998 187.507 114.039 192.437 110.087 200.873C116.494 219.254 121.24 224.915 129.388 224.821C140.111 224.821 143.163 215.733 149.046 200.873C145.952 192.497 145.622 187.875 148.5 179.5" stroke="#211F21" stroke-width="2" stroke-linecap="round"/>
</g>
<defs>
<filter id="filter0_i_609_104" x="0" y="0" width="725" height="461" filterUnits="userSpaceOnUse" color-interpolation-filters="sRGB">
<feFlood flood-opacity="0" result="BackgroundImageFix"/>
<feBlend mode="normal" in="SourceGraphic" in2="BackgroundImageFix" result="shape"/>
<feColorMatrix in="SourceAlpha" type="matrix" values="0 0 0 0 0 0 0 0 0 0 0 0 0 0 0 0 0 0 127 0" result="hardAlpha"/>
<feOffset dx="3" dy="3"/>
<feGaussianBlur stdDeviation="3"/>
<feComposite in2="hardAlpha" operator="arithmetic" k2="-1" k3="1"/>
<feColorMatrix type="matrix" values="0 0 0 0 1 0 0 0 0 1 0 0 0 0 1 0 0 0 0.25 0"/>
<feBlend mode="normal" in2="shape" result="effect1_innerShadow_609_104"/>
</filter>
<linearGradient id="paint0_linear_609_104" x1="610.09" y1="61.83" x2="354.096" y2="526.995" gradientUnits="userSpaceOnUse">
<stop stop-color="#A950C4"/>
<stop offset="1" stop-color="#82269E"/>
</linearGradient>
<linearGradient id="paint1_linear_609_104" x1="171" y1="165" x2="87" y2="221" gradientUnits="userSpaceOnUse">
<stop stop-color="#F4F4F4"/>
<stop offset="1" stop-color="#D6D6D6"/>
</linearGradient>
<clipPath id="clip0_609_104">
<rect width="722" height="458" fill="white"/>
</clipPath>
</defs>
</svg>
